{"title":"Mummy Punjabi (2011) Hindi 1CD PDVDRip AVC-=MTR=-@Mastitorrents","uid":6687211,"size":521405580,"categoryP":"video","categoryS":"movies","magnet":"?xt=urn:btih:a2711fcbacc4e20b2ec412ef760f917aaf92ded9&amp;dn=Mummy+Punjabi+%282011%29+Hindi+1CD+PDVDRip+AVC-%3DMTR%3D-%40Mastitorrents&amp;tr=udp%3A%2F%2Ftracker.openbittorrent.com%3A80&amp;tr=udp%3A%2F%2Fopen.demonii.com%3A1337&amp;tr=udp%3A%2F%2Ftracker.coppersurfer.tk%3A6969&amp;tr=udp%3A%2F%2Fexodus.desync.com%3A6969","seeders":0,"leechers":0,"uploader":"HDvideos","files":-1,"time":1316449575,"description":"\n\nMummy Punjabi (2011) Hindi 1CD PDVDRip AVC-=MTR=-@Mastitorrents\n   &lt;a href=&quot;\nhttp://thepiratebay.se/user/HDvideos/0/7&quot; rel=&quot;nofollow&quot; target=&quot;_NEW&quot;&gt;\nhttp://thepiratebay.se/user/HDvideos/0/7&lt;/a&gt;\n\nRipper : Rahul\nComplete name : Mummy Punjabi (2011)\nFormat : Matroska\nFile size : 497 MiB\nDuration : 1h 57mn\nOverall bit rate : 592 Kbps\nWriting library : libmkv 0.6.4.1\n\nVideo\nID : 1\nFormat : AVC\nFormat/Info : Advanced Video Codec\nFormat profile : &lt;a class=&quot;__cf_email__&quot; href=&quot;/cdn-cgi/l/email-protection&quot; data-cfemail=&quot;6820010f0028245a4659&quot;&gt;[email&amp;#160;protected]&lt;/a&gt;&lt;script data-cfhash='f9e31' type=&quot;text/javascript&quot;&gt;\n/* &lt;![CDATA[ */!function(){try{var t=&quot;currentScript&quot;in document?document.currentScript:function(){for(var t=document.getElementsByTagName(&quot;script&quot;),e=t.length;e--;)if(t[e].getAttribute(&quot;data-cfhash&quot;))return t[e]}();if(t&amp;&amp;t.previousSibling){var e,r,n,i,c=t.previousSibling,a=c.getAttribute(&quot;data-cfemail&quot;);if(a){for(e=&quot;&quot;,r=parseInt(a.substr(0,2),16),n=2;a.length-n;n+=2)i=parseInt(a.substr(n,2),16)^r,e+=String.fromCharCode(i);e=document.createTextNode(e),c.parentNode.replaceChild(e,c)}t.parentNode.removeChild(t);}}catch(u){}}()/* ]]&gt; */&lt;/script&gt;\nFormat settings, CABAC : Yes\nFormat settings, ReFrames : 4 frames\nFormat settings, GOP : M=1, N=7\nCodec ID : V_MPEG4/ISO/AVC\nDuration : 1h 57mn\nBit rate : 369 Kbps\nWidth : 640 pixels\nHeight : 272 pixels\nDisplay aspect ratio : 2.35:1\nFrame rate : 23.976 fps\nColor space : YUV\nChroma subsampling : 4:2:0\nBit depth : 8 bits\nScan type : Progressive\nBits/(Pixel*Frame) : 0.088\nStream size : 299 MiB (60%)\nWriting library : x264 core 112\n\n\nAudio\nID : 2\nFormat : AC-3\nFormat/Info : Audio Coding 3\nMode extension : CM (complete main)\nCodec ID : A_AC3\nDuration : 1h 57mn\nBit rate mode : Constant\nBit rate : 224 Kbps\nChannel(s) : 2 channels\nChannel positions : Front: L R\nSampling rate : 32.0 KHz\nBit depth : 16 bits\nCompression mode : Lossy\nStream size : 188 MiB (38%)\n\nRecommended Player:VLC Player\n\nfacebook. com/MastiTorrents\n\nfacebook. com/MastiTorrentsReleasers","torrent":{"xt":"urn:btih:a2711fcbacc4e20b2ec412ef760f917aaf92ded9","amp;dn":"Mummy+Punjabi+%282011%29+Hindi+1CD+PDVDRip+AVC-%3DMTR%3D-%40Mastitorrents","amp;tr":["udp%3A%2F%2Ftracker.openbittorrent.com%3A80","udp%3A%2F%2Fopen.demonii.com%3A1337","udp%3A%2F%2Ftracker.coppersurfer.tk%3A6969","udp%3A%2F%2Fexodus.desync.com%3A6969"],"infoHash":"a2711fcbacc4e20b2ec412ef760f917aaf92ded9","infoHashBuffer":{"type":"Buffer","data":[162,113,31,203,172,196,226,11,46,196,18,239,118,15,145,122,175,146,222,217]},"announce":[],"urlList":[]}}